**************************Aladin Ka Jadui Chirag***********************************


Format                           : AVI
Format/Info                      : Audio Video Interleave
File size                        : 296 MiB
Duration                         : 52mn 15s
Overall bit rate                 : 791 Kbps
Writing application              : MEncoder SVN-r30881(20100311-gcc4.3.3)
Writing library                  : MPlayer

Video
ID                               : 0
Format                           : MPEG-4 Visual
Format profile                   : Advanced Simple@L5
Format settings, BVOP            : 2
Format settings, QPel            : No
Format settings, GMC             : No warppoints
Format settings, Matrix          : Default (H.263)
Codec ID                         : XVID
Codec ID/Hint                    : XviD
Duration                         : 52mn 14s
Bit rate                         : 716 Kbps
Width                            : 352 pixels
Height                           : 288 pixels
Display aspect ratio             : 4:3
Frame rate                       : 20.000 fps
Standard                         : PAL
Color space                      : YUV
Chroma subsampling               : 4:2:0
Bit depth                        : 8 bits
Scan type                        : Progressive
Compression mode                 : Lossy
Bits/(Pixel*Frame)               : 0.353
Stream size                      : 267 MiB (90%)
Writing library                  : XviD 1.2.1 (UTC 2008-12-04)

Audio
ID                               : 1
Format                           : MPEG Audio
Format version                   : Version 1
Format profile                   : Layer 3
Mode                             : Joint stereo
Mode extension                   : MS Stereo
Codec ID                         : 55
Codec ID/Hint                    : MP3
Duration                         : 52mn 15s
Bit rate mode                    : Constant
Bit rate                         : 64.0 Kbps
Channel(s)                       : 2 channels
Sampling rate                    : 44.1 KHz
Compression mode                 : Lossy
Delay relative to video          : 50ms
Stream size                      : 23.9 MiB (8%)
Alignment                        : Aligned on interleaves
Interleave, duration             : 26 ms (0.52 video frame)
Interleave, preload duration     : 522 ms



Please note , this is not a whole series of alif laila, it is only a complete part of aladin k chirag {from alif laila} 

seed and enjoy.....